<?xml version="1.0" standalone="no"?>
<!DOCTYPE svg PUBLIC "-//W3C//DTD SVG 20010904//EN"
 "http://www.w3.org/TR/2001/REC-SVG-20010904/DTD/svg10.dtd">
<svg version="1.0" xmlns="http://www.w3.org/2000/svg"
 width="512.000000pt" height="512.000000pt" viewBox="0 0 512.000000 512.000000"
 preserveAspectRatio="xMidYMid meet">

<g transform="translate(0.000000,512.000000) scale(0.100000,-0.100000)"
fill="#000000" stroke="none">
<path d="M3450 4407 c8 -8 51 -43 96 -80 347 -284 613 -728 703 -1172 63 -313
55 -660 -24 -959 -192 -734 -779 -1314 -1517 -1501 -287 -73 -622 -83 -903
-26 -47 9 -85 16 -85 15 0 -1 28 -20 63 -42 254 -165 532 -270 842 -318 149
-23 441 -23 590 0 236 36 494 119 672 215 l52 28 278 -118 c153 -66 290 -119
305 -119 18 0 33 8 43 24 15 22 11 40 -63 302 l-79 279 39 45 c213 246 351
483 442 760 221 676 92 1395 -351 1958 -73 91 -239 258 -332 333 -192 152
-416 273 -655 353 -116 39 -139 44 -116 23z"/>
</g>
</svg>
